<svg width="208" height="17" viewBox="0 0 208 17" fill="none" xmlns="http://www.w3.org/2000/svg">
<path d="M10.5991 6.36C10.5991 7.10667 10.4191 7.80667 10.0591 8.46C9.7124 9.11333 9.15906 9.64 8.39906 10.04C7.6524 10.44 6.70573 10.64 5.55906 10.64H3.21906V16H0.419063V2.04H5.55906C6.63906 2.04 7.55906 2.22667 8.31906 2.6C9.07906 2.97333 9.64573 3.48667 10.0191 4.14C10.4057 4.79333 10.5991 5.53333 10.5991 6.36ZM5.43906 8.38C6.2124 8.38 6.78573 8.20667 7.15906 7.86C7.5324 7.5 7.71906 7 7.71906 6.36C7.71906 5 6.95906 4.32 5.43906 4.32H3.21906V8.38H5.43906ZM15.387 6.64C15.747 6.05333 16.2137 5.59333 16.787 5.26C17.3737 4.92667 18.0404 4.76 18.787 4.76V7.7H18.047C17.167 7.7 16.5004 7.90667 16.047 8.32C15.607 8.73333 15.387 9.45333 15.387 10.48V16H12.587V4.92H15.387V6.64ZM30.973 10.22C30.973 10.62 30.9463 10.98 30.893 11.3H22.793C22.8596 12.1 23.1396 12.7267 23.633 13.18C24.1263 13.6333 24.733 13.86 25.453 13.86C26.493 13.86 27.233 13.4133 27.673 12.52H30.693C30.373 13.5867 29.7596 14.4667 28.853 15.16C27.9463 15.84 26.833 16.18 25.513 16.18C24.4463 16.18 23.4863 15.9467 22.633 15.48C21.793 15 21.133 14.3267 20.653 13.46C20.1863 12.5933 19.953 11.5933 19.953 10.46C19.953 9.31333 20.1863 8.30667 20.653 7.44C21.1196 6.57333 21.773 5.90667 22.613 5.44C23.453 4.97333 24.4196 4.74 25.513 4.74C26.5663 4.74 27.5063 4.96667 28.333 5.42C29.173 5.87333 29.8196 6.52 30.273 7.36C30.7396 8.18667 30.973 9.14 30.973 10.22ZM28.073 9.42C28.0596 8.7 27.7996 8.12667 27.293 7.7C26.7863 7.26 26.1663 7.04 25.433 7.04C24.7396 7.04 24.153 7.25333 23.673 7.68C23.2063 8.09333 22.9196 8.67333 22.813 9.42H28.073ZM37.2567 16.18C36.3501 16.18 35.5367 16.02 34.8167 15.7C34.0967 15.3667 33.5234 14.92 33.0967 14.36C32.6834 13.8 32.4567 13.18 32.4167 12.5H35.2367C35.2901 12.9267 35.4967 13.28 35.8567 13.56C36.2301 13.84 36.6901 13.98 37.2367 13.98C37.7701 13.98 38.1834 13.8733 38.4767 13.66C38.7834 13.4467 38.9367 13.1733 38.9367 12.84C38.9367 12.48 38.7501 12.2133 38.3767 12.04C38.0167 11.8533 37.4367 11.6533 36.6367 11.44C35.8101 11.24 35.1301 11.0333 34.5967 10.82C34.0767 10.6067 33.6234 10.28 33.2367 9.84C32.8634 9.4 32.6767 8.80667 32.6767 8.06C32.6767 7.44667 32.8501 6.88667 33.1967 6.38C33.5567 5.87333 34.0634 5.47333 34.7167 5.18C35.3834 4.88667 36.1634 4.74 37.0567 4.74C38.3767 4.74 39.4301 5.07333 40.2167 5.74C41.0034 6.39333 41.4367 7.28 41.5167 8.4H38.8367C38.7967 7.96 38.6101 7.61333 38.2767 7.36C37.9567 7.09333 37.5234 6.96 36.9767 6.96C36.4701 6.96 36.0767 7.05333 35.7967 7.24C35.5301 7.42667 35.3967 7.68667 35.3967 8.02C35.3967 8.39333 35.5834 8.68 35.9567 8.88C36.3301 9.06667 36.9101 9.26 37.6967 9.46C38.4967 9.66 39.1567 9.86667 39.6767 10.08C40.1967 10.2933 40.6434 10.6267 41.0167 11.08C41.4034 11.52 41.6034 12.1067 41.6167 12.84C41.6167 13.48 41.4367 14.0533 41.0767 14.56C40.7301 15.0667 40.2234 15.4667 39.5567 15.76C38.9034 16.04 38.1367 16.18 37.2567 16.18ZM54.2152 10.22C54.2152 10.62 54.1885 10.98 54.1352 11.3H46.0352C46.1018 12.1 46.3818 12.7267 46.8752 13.18C47.3685 13.6333 47.9752 13.86 48.6952 13.86C49.7352 13.86 50.4752 13.4133 50.9152 12.52H53.9352C53.6152 13.5867 53.0018 14.4667 52.0952 15.16C51.1885 15.84 50.0752 16.18 48.7552 16.18C47.6885 16.18 46.7285 15.9467 45.8752 15.48C45.0352 15 44.3752 14.3267 43.8952 13.46C43.4285 12.5933 43.1952 11.5933 43.1952 10.46C43.1952 9.31333 43.4285 8.30667 43.8952 7.44C44.3618 6.57333 45.0152 5.90667 45.8552 5.44C46.6952 4.97333 47.6618 4.74 48.7552 4.74C49.8085 4.74 50.7485 4.96667 51.5752 5.42C52.4152 5.87333 53.0618 6.52 53.5152 7.36C53.9818 8.18667 54.2152 9.14 54.2152 10.22ZM51.3152 9.42C51.3018 8.7 51.0418 8.12667 50.5352 7.7C50.0285 7.26 49.4085 7.04 48.6752 7.04C47.9818 7.04 47.3952 7.25333 46.9152 7.68C46.4485 8.09333 46.1618 8.67333 46.0552 9.42H51.3152ZM62.3989 4.76C63.7189 4.76 64.7856 5.18 65.5989 6.02C66.4122 6.84667 66.8189 8.00667 66.8189 9.5V16H64.0189V9.88C64.0189 9 63.7989 8.32667 63.3589 7.86C62.9189 7.38 62.3189 7.14 61.5589 7.14C60.7856 7.14 60.1722 7.38 59.7189 7.86C59.2789 8.32667 59.0589 9 59.0589 9.88V16H56.2589V4.92H59.0589V6.3C59.4322 5.82 59.9056 5.44667 60.4789 5.18C61.0656 4.9 61.7056 4.76 62.3989 4.76ZM72.7416 7.22V12.58C72.7416 12.9533 72.8282 13.2267 73.0016 13.4C73.1882 13.56 73.4949 13.64 73.9216 13.64H75.2216V16H73.4616C71.1016 16 69.9216 14.8533 69.9216 12.56V7.22H68.6016V4.92H69.9216V2.18H72.7416V4.92H75.2216V7.22H72.7416ZM76.5155 10.42C76.5155 9.3 76.7355 8.30667 77.1755 7.44C77.6288 6.57333 78.2355 5.90667 78.9955 5.44C79.7688 4.97333 80.6288 4.74 81.5755 4.74C82.4021 4.74 83.1221 4.90667 83.7355 5.24C84.3621 5.57333 84.8621 5.99333 85.2355 6.5V4.92H88.0555V16H85.2355V14.38C84.8755 14.9 84.3755 15.3333 83.7355 15.68C83.1088 16.0133 82.3821 16.18 81.5555 16.18C80.6221 16.18 79.7688 15.94 78.9955 15.46C78.2355 14.98 77.6288 14.3067 77.1755 13.44C76.7355 12.56 76.5155 11.5533 76.5155 10.42ZM85.2355 10.46C85.2355 9.78 85.1021 9.2 84.8355 8.72C84.5688 8.22667 84.2088 7.85333 83.7555 7.6C83.3021 7.33333 82.8155 7.2 82.2955 7.2C81.7755 7.2 81.2955 7.32667 80.8555 7.58C80.4155 7.83333 80.0555 8.20667 79.7755 8.7C79.5088 9.18 79.3755 9.75333 79.3755 10.42C79.3755 11.0867 79.5088 11.6733 79.7755 12.18C80.0555 12.6733 80.4155 13.0533 80.8555 13.32C81.3088 13.5867 81.7888 13.72 82.2955 13.72C82.8155 13.72 83.3021 13.5933 83.7555 13.34C84.2088 13.0733 84.5688 12.7 84.8355 12.22C85.1021 11.7267 85.2355 11.14 85.2355 10.46ZM94.0502 7.22V12.58C94.0502 12.9533 94.1368 13.2267 94.3102 13.4C94.4968 13.56 94.8035 13.64 95.2302 13.64H96.5302V16H94.7702C92.4102 16 91.2302 14.8533 91.2302 12.56V7.22H89.9102V4.92H91.2302V2.18H94.0502V4.92H96.5302V7.22H94.0502ZM99.9641 3.6C99.4707 3.6 99.0574 3.44667 98.7241 3.14C98.4041 2.82 98.2441 2.42667 98.2441 1.96C98.2441 1.49333 98.4041 1.10667 98.7241 0.799999C99.0574 0.479999 99.4707 0.319999 99.9641 0.319999C100.457 0.319999 100.864 0.479999 101.184 0.799999C101.517 1.10667 101.684 1.49333 101.684 1.96C101.684 2.42667 101.517 2.82 101.184 3.14C100.864 3.44667 100.457 3.6 99.9641 3.6ZM101.344 4.92V16H98.5441V4.92H101.344ZM109.03 16.18C107.964 16.18 107.004 15.9467 106.15 15.48C105.297 15 104.624 14.3267 104.13 13.46C103.65 12.5933 103.41 11.5933 103.41 10.46C103.41 9.32667 103.657 8.32667 104.15 7.46C104.657 6.59333 105.344 5.92667 106.21 5.46C107.077 4.98 108.044 4.74 109.11 4.74C110.177 4.74 111.144 4.98 112.01 5.46C112.877 5.92667 113.557 6.59333 114.05 7.46C114.557 8.32667 114.81 9.32667 114.81 10.46C114.81 11.5933 114.55 12.5933 114.03 13.46C113.524 14.3267 112.83 15 111.95 15.48C111.084 15.9467 110.11 16.18 109.03 16.18ZM109.03 13.74C109.537 13.74 110.01 13.62 110.45 13.38C110.904 13.1267 111.264 12.7533 111.53 12.26C111.797 11.7667 111.93 11.1667 111.93 10.46C111.93 9.40667 111.65 8.6 111.09 8.04C110.544 7.46667 109.87 7.18 109.07 7.18C108.27 7.18 107.597 7.46667 107.05 8.04C106.517 8.6 106.25 9.40667 106.25 10.46C106.25 11.5133 106.51 12.3267 107.03 12.9C107.564 13.46 108.23 13.74 109.03 13.74ZM123.004 4.76C124.324 4.76 125.391 5.18 126.204 6.02C127.018 6.84667 127.424 8.00667 127.424 9.5V16H124.624V9.88C124.624 9 124.404 8.32667 123.964 7.86C123.524 7.38 122.924 7.14 122.164 7.14C121.391 7.14 120.778 7.38 120.324 7.86C119.884 8.32667 119.664 9 119.664 9.88V16H116.864V4.92H119.664V6.3C120.038 5.82 120.511 5.44667 121.084 5.18C121.671 4.9 122.311 4.76 123.004 4.76ZM134.173 9C134.173 7.62667 134.479 6.4 135.093 5.32C135.719 4.22667 136.566 3.38 137.633 2.78C138.713 2.16667 139.919 1.86 141.253 1.86C142.813 1.86 144.179 2.26 145.353 3.06C146.526 3.86 147.346 4.96667 147.813 6.38H144.593C144.273 5.71333 143.819 5.21333 143.233 4.88C142.659 4.54667 141.993 4.38 141.233 4.38C140.419 4.38 139.693 4.57333 139.053 4.96C138.426 5.33333 137.933 5.86667 137.573 6.56C137.226 7.25333 137.053 8.06667 137.053 9C137.053 9.92 137.226 10.7333 137.573 11.44C137.933 12.1333 138.426 12.6733 139.053 13.06C139.693 13.4333 140.419 13.62 141.233 13.62C141.993 13.62 142.659 13.4533 143.233 13.12C143.819 12.7733 144.273 12.2667 144.593 11.6H147.813C147.346 13.0267 146.526 14.14 145.353 14.94C144.193 15.7267 142.826 16.12 141.253 16.12C139.919 16.12 138.713 15.82 137.633 15.22C136.566 14.6067 135.719 13.76 135.093 12.68C134.479 11.6 134.173 10.3733 134.173 9ZM155.124 16.18C154.058 16.18 153.098 15.9467 152.244 15.48C151.391 15 150.718 14.3267 150.224 13.46C149.744 12.5933 149.504 11.5933 149.504 10.46C149.504 9.32667 149.751 8.32667 150.244 7.46C150.751 6.59333 151.438 5.92667 152.304 5.46C153.171 4.98 154.138 4.74 155.204 4.74C156.271 4.74 157.238 4.98 158.104 5.46C158.971 5.92667 159.651 6.59333 160.144 7.46C160.651 8.32667 160.904 9.32667 160.904 10.46C160.904 11.5933 160.644 12.5933 160.124 13.46C159.618 14.3267 158.924 15 158.044 15.48C157.178 15.9467 156.204 16.18 155.124 16.18ZM155.124 13.74C155.631 13.74 156.104 13.62 156.544 13.38C156.998 13.1267 157.358 12.7533 157.624 12.26C157.891 11.7667 158.024 11.1667 158.024 10.46C158.024 9.40667 157.744 8.6 157.184 8.04C156.638 7.46667 155.964 7.18 155.164 7.18C154.364 7.18 153.691 7.46667 153.144 8.04C152.611 8.6 152.344 9.40667 152.344 10.46C152.344 11.5133 152.604 12.3267 153.124 12.9C153.658 13.46 154.324 13.74 155.124 13.74ZM169.098 4.76C170.418 4.76 171.485 5.18 172.298 6.02C173.111 6.84667 173.518 8.00667 173.518 9.5V16H170.718V9.88C170.718 9 170.498 8.32667 170.058 7.86C169.618 7.38 169.018 7.14 168.258 7.14C167.485 7.14 166.871 7.38 166.418 7.86C165.978 8.32667 165.758 9 165.758 9.88V16H162.958V4.92H165.758V6.3C166.131 5.82 166.605 5.44667 167.178 5.18C167.765 4.9 168.405 4.76 169.098 4.76ZM179.441 7.22V12.58C179.441 12.9533 179.527 13.2267 179.701 13.4C179.887 13.56 180.194 13.64 180.621 13.64H181.921V16H180.161C177.801 16 176.621 14.8533 176.621 12.56V7.22H175.301V4.92H176.621V2.18H179.441V4.92H181.921V7.22H179.441ZM186.735 6.64C187.095 6.05333 187.561 5.59333 188.135 5.26C188.721 4.92667 189.388 4.76 190.135 4.76V7.7H189.395C188.515 7.7 187.848 7.90667 187.395 8.32C186.955 8.73333 186.735 9.45333 186.735 10.48V16H183.935V4.92H186.735V6.64ZM196.941 16.18C195.874 16.18 194.914 15.9467 194.061 15.48C193.207 15 192.534 14.3267 192.041 13.46C191.561 12.5933 191.321 11.5933 191.321 10.46C191.321 9.32667 191.567 8.32667 192.061 7.46C192.567 6.59333 193.254 5.92667 194.121 5.46C194.987 4.98 195.954 4.74 197.021 4.74C198.087 4.74 199.054 4.98 199.921 5.46C200.787 5.92667 201.467 6.59333 201.961 7.46C202.467 8.32667 202.721 9.32667 202.721 10.46C202.721 11.5933 202.461 12.5933 201.941 13.46C201.434 14.3267 200.741 15 199.861 15.48C198.994 15.9467 198.021 16.18 196.941 16.18ZM196.941 13.74C197.447 13.74 197.921 13.62 198.361 13.38C198.814 13.1267 199.174 12.7533 199.441 12.26C199.707 11.7667 199.841 11.1667 199.841 10.46C199.841 9.40667 199.561 8.6 199.001 8.04C198.454 7.46667 197.781 7.18 196.981 7.18C196.181 7.18 195.507 7.46667 194.961 8.04C194.427 8.6 194.161 9.40667 194.161 10.46C194.161 11.5133 194.421 12.3267 194.941 12.9C195.474 13.46 196.141 13.74 196.941 13.74ZM207.575 1.2V16H204.775V1.2H207.575Z" fill="white"/>
</svg>
