<svg width="187" height="17" viewBox="0 0 187 17" fill="none" xmlns="http://www.w3.org/2000/svg">
<path d="M0.782031 9C0.782031 7.62667 1.0887 6.4 1.70203 5.32C2.3287 4.22667 3.17536 3.38 4.24203 2.78C5.32203 2.16667 6.5287 1.86 7.86203 1.86C9.42203 1.86 10.7887 2.26 11.962 3.06C13.1354 3.86 13.9554 4.96667 14.422 6.38H11.202C10.882 5.71333 10.4287 5.21333 9.84203 4.88C9.2687 4.54667 8.60203 4.38 7.84203 4.38C7.0287 4.38 6.30203 4.57333 5.66203 4.96C5.03536 5.33333 4.54203 5.86667 4.18203 6.56C3.83536 7.25333 3.66203 8.06667 3.66203 9C3.66203 9.92 3.83536 10.7333 4.18203 11.44C4.54203 12.1333 5.03536 12.6733 5.66203 13.06C6.30203 13.4333 7.0287 13.62 7.84203 13.62C8.60203 13.62 9.2687 13.4533 9.84203 13.12C10.4287 12.7733 10.882 12.2667 11.202 11.6H14.422C13.9554 13.0267 13.1354 14.14 11.962 14.94C10.802 15.7267 9.43537 16.12 7.86203 16.12C6.5287 16.12 5.32203 15.82 4.24203 15.22C3.17536 14.6067 2.3287 13.76 1.70203 12.68C1.0887 11.6 0.782031 10.3733 0.782031 9ZM19.6136 6.64C19.9736 6.05333 20.4403 5.59333 21.0136 5.26C21.6003 4.92667 22.2669 4.76 23.0136 4.76V7.7H22.2736C21.3936 7.7 20.7269 7.90667 20.2736 8.32C19.8336 8.73333 19.6136 9.45333 19.6136 10.48V16H16.8136V4.92H19.6136V6.64ZM35.1995 10.22C35.1995 10.62 35.1729 10.98 35.1195 11.3H27.0195C27.0862 12.1 27.3662 12.7267 27.8595 13.18C28.3529 13.6333 28.9595 13.86 29.6795 13.86C30.7195 13.86 31.4595 13.4133 31.8995 12.52H34.9195C34.5995 13.5867 33.9862 14.4667 33.0795 15.16C32.1729 15.84 31.0595 16.18 29.7395 16.18C28.6729 16.18 27.7129 15.9467 26.8595 15.48C26.0195 15 25.3595 14.3267 24.8795 13.46C24.4129 12.5933 24.1795 11.5933 24.1795 10.46C24.1795 9.31333 24.4129 8.30667 24.8795 7.44C25.3462 6.57333 25.9995 5.90667 26.8395 5.44C27.6795 4.97333 28.6462 4.74 29.7395 4.74C30.7929 4.74 31.7329 4.96667 32.5595 5.42C33.3995 5.87333 34.0462 6.52 34.4995 7.36C34.9662 8.18667 35.1995 9.14 35.1995 10.22ZM32.2995 9.42C32.2862 8.7 32.0262 8.12667 31.5195 7.7C31.0129 7.26 30.3929 7.04 29.6595 7.04C28.9662 7.04 28.3795 7.25333 27.8995 7.68C27.4329 8.09333 27.1462 8.67333 27.0395 9.42H32.2995ZM36.5233 10.42C36.5233 9.3 36.7433 8.30667 37.1833 7.44C37.6366 6.57333 38.2433 5.90667 39.0033 5.44C39.7766 4.97333 40.6366 4.74 41.5833 4.74C42.4099 4.74 43.1299 4.90667 43.7433 5.24C44.3699 5.57333 44.8699 5.99333 45.2433 6.5V4.92H48.0633V16H45.2433V14.38C44.8833 14.9 44.3833 15.3333 43.7433 15.68C43.1166 16.0133 42.3899 16.18 41.5633 16.18C40.6299 16.18 39.7766 15.94 39.0033 15.46C38.2433 14.98 37.6366 14.3067 37.1833 13.44C36.7433 12.56 36.5233 11.5533 36.5233 10.42ZM45.2433 10.46C45.2433 9.78 45.1099 9.2 44.8433 8.72C44.5766 8.22667 44.2166 7.85333 43.7633 7.6C43.3099 7.33333 42.8233 7.2 42.3033 7.2C41.7833 7.2 41.3033 7.32667 40.8633 7.58C40.4233 7.83333 40.0633 8.20667 39.7833 8.7C39.5166 9.18 39.3833 9.75333 39.3833 10.42C39.3833 11.0867 39.5166 11.6733 39.7833 12.18C40.0633 12.6733 40.4233 13.0533 40.8633 13.32C41.3166 13.5867 41.7966 13.72 42.3033 13.72C42.8233 13.72 43.3099 13.5933 43.7633 13.34C44.2166 13.0733 44.5766 12.7 44.8433 12.22C45.1099 11.7267 45.2433 11.14 45.2433 10.46ZM54.058 7.22V12.58C54.058 12.9533 54.1446 13.2267 54.318 13.4C54.5046 13.56 54.8113 13.64 55.238 13.64H56.538V16H54.778C52.418 16 51.238 14.8533 51.238 12.56V7.22H49.918V4.92H51.238V2.18H54.058V4.92H56.538V7.22H54.058ZM59.9719 3.6C59.4785 3.6 59.0652 3.44667 58.7319 3.14C58.4119 2.82 58.2519 2.42667 58.2519 1.96C58.2519 1.49333 58.4119 1.10667 58.7319 0.799999C59.0652 0.479999 59.4785 0.319999 59.9719 0.319999C60.4652 0.319999 60.8719 0.479999 61.1919 0.799999C61.5252 1.10667 61.6919 1.49333 61.6919 1.96C61.6919 2.42667 61.5252 2.82 61.1919 3.14C60.8719 3.44667 60.4652 3.6 59.9719 3.6ZM61.3519 4.92V16H58.5519V4.92H61.3519ZM68.7383 13.42L71.5383 4.92H74.5183L70.4183 16H67.0183L62.9383 4.92H65.9383L68.7383 13.42ZM86.3909 10.22C86.3909 10.62 86.3643 10.98 86.3109 11.3H78.2109C78.2776 12.1 78.5576 12.7267 79.0509 13.18C79.5443 13.6333 80.1509 13.86 80.8709 13.86C81.9109 13.86 82.6509 13.4133 83.0909 12.52H86.1109C85.7909 13.5867 85.1776 14.4667 84.2709 15.16C83.3643 15.84 82.2509 16.18 80.9309 16.18C79.8643 16.18 78.9043 15.9467 78.0509 15.48C77.2109 15 76.5509 14.3267 76.0709 13.46C75.6043 12.5933 75.3709 11.5933 75.3709 10.46C75.3709 9.31333 75.6043 8.30667 76.0709 7.44C76.5376 6.57333 77.1909 5.90667 78.0309 5.44C78.8709 4.97333 79.8376 4.74 80.9309 4.74C81.9843 4.74 82.9243 4.96667 83.7509 5.42C84.5909 5.87333 85.2376 6.52 85.6909 7.36C86.1576 8.18667 86.3909 9.14 86.3909 10.22ZM83.4909 9.42C83.4776 8.7 83.2176 8.12667 82.7109 7.7C82.2043 7.26 81.5843 7.04 80.8509 7.04C80.1576 7.04 79.5709 7.25333 79.0909 7.68C78.6243 8.09333 78.3376 8.67333 78.2309 9.42H83.4909ZM111.86 2.04L107.96 16H104.66L102.04 6.06L99.3003 16L96.0203 16.02L92.2603 2.04H95.2603L97.7203 12.88L100.56 2.04H103.68L106.36 12.82L108.84 2.04H111.86ZM118.609 16.18C117.542 16.18 116.582 15.9467 115.729 15.48C114.875 15 114.202 14.3267 113.709 13.46C113.229 12.5933 112.989 11.5933 112.989 10.46C112.989 9.32667 113.235 8.32667 113.729 7.46C114.235 6.59333 114.922 5.92667 115.789 5.46C116.655 4.98 117.622 4.74 118.689 4.74C119.755 4.74 120.722 4.98 121.589 5.46C122.455 5.92667 123.135 6.59333 123.629 7.46C124.135 8.32667 124.389 9.32667 124.389 10.46C124.389 11.5933 124.129 12.5933 123.609 13.46C123.102 14.3267 122.409 15 121.529 15.48C120.662 15.9467 119.689 16.18 118.609 16.18ZM118.609 13.74C119.115 13.74 119.589 13.62 120.029 13.38C120.482 13.1267 120.842 12.7533 121.109 12.26C121.375 11.7667 121.509 11.1667 121.509 10.46C121.509 9.40667 121.229 8.6 120.669 8.04C120.122 7.46667 119.449 7.18 118.649 7.18C117.849 7.18 117.175 7.46667 116.629 8.04C116.095 8.6 115.829 9.40667 115.829 10.46C115.829 11.5133 116.089 12.3267 116.609 12.9C117.142 13.46 117.809 13.74 118.609 13.74ZM129.243 6.64C129.603 6.05333 130.069 5.59333 130.643 5.26C131.229 4.92667 131.896 4.76 132.643 4.76V7.7H131.903C131.023 7.7 130.356 7.90667 129.903 8.32C129.463 8.73333 129.243 9.45333 129.243 10.48V16H126.443V4.92H129.243V6.64ZM141.088 16L137.328 11.28V16H134.528V1.2H137.328V9.62L141.048 4.92H144.688L139.808 10.48L144.728 16H141.088ZM151.288 7.22H149.348V16H146.508V7.22H145.248V4.92H146.508V4.36C146.508 3 146.895 2 147.668 1.36C148.441 0.719999 149.608 0.42 151.168 0.46V2.82C150.488 2.80667 150.015 2.92 149.748 3.16C149.481 3.4 149.348 3.83333 149.348 4.46V4.92H151.288V7.22ZM155.903 1.2V16H153.103V1.2H155.903ZM163.589 16.18C162.522 16.18 161.562 15.9467 160.709 15.48C159.856 15 159.182 14.3267 158.689 13.46C158.209 12.5933 157.969 11.5933 157.969 10.46C157.969 9.32667 158.216 8.32667 158.709 7.46C159.216 6.59333 159.902 5.92667 160.769 5.46C161.636 4.98 162.602 4.74 163.669 4.74C164.736 4.74 165.702 4.98 166.569 5.46C167.436 5.92667 168.116 6.59333 168.609 7.46C169.116 8.32667 169.369 9.32667 169.369 10.46C169.369 11.5933 169.109 12.5933 168.589 13.46C168.082 14.3267 167.389 15 166.509 15.48C165.642 15.9467 164.669 16.18 163.589 16.18ZM163.589 13.74C164.096 13.74 164.569 13.62 165.009 13.38C165.462 13.1267 165.822 12.7533 166.089 12.26C166.356 11.7667 166.489 11.1667 166.489 10.46C166.489 9.40667 166.209 8.6 165.649 8.04C165.102 7.46667 164.429 7.18 163.629 7.18C162.829 7.18 162.156 7.46667 161.609 8.04C161.076 8.6 160.809 9.40667 160.809 10.46C160.809 11.5133 161.069 12.3267 161.589 12.9C162.122 13.46 162.789 13.74 163.589 13.74ZM186.783 4.92L183.543 16H180.523L178.503 8.26L176.483 16H173.443L170.183 4.92H173.023L174.983 13.36L177.103 4.92H180.063L182.143 13.34L184.103 4.92H186.783Z" fill="white"/>
</svg>
