<svg width="175" height="22" viewBox="0 0 175 22" fill="none" xmlns="http://www.w3.org/2000/svg">
<path d="M11.2289 6.24C10.9089 5.65333 10.4689 5.20667 9.90891 4.9C9.34891 4.59333 8.69557 4.44 7.94891 4.44C7.12224 4.44 6.38891 4.62667 5.74891 5C5.10891 5.37333 4.60891 5.90667 4.24891 6.6C3.88891 7.29333 3.70891 8.09333 3.70891 9C3.70891 9.93333 3.88891 10.7467 4.24891 11.44C4.62224 12.1333 5.13557 12.6667 5.78891 13.04C6.44224 13.4133 7.20224 13.6 8.06891 13.6C9.13557 13.6 10.0089 13.32 10.6889 12.76C11.3689 12.1867 11.8156 11.3933 12.0289 10.38H7.22891V8.24H14.7889V10.68C14.6022 11.6533 14.2022 12.5533 13.5889 13.38C12.9756 14.2067 12.1822 14.8733 11.2089 15.38C10.2489 15.8733 9.16891 16.12 7.96891 16.12C6.62224 16.12 5.40224 15.82 4.30891 15.22C3.22891 14.6067 2.37557 13.76 1.74891 12.68C1.13557 11.6 0.828906 10.3733 0.828906 9C0.828906 7.62667 1.13557 6.4 1.74891 5.32C2.37557 4.22667 3.22891 3.38 4.30891 2.78C5.40224 2.16667 6.61557 1.86 7.94891 1.86C9.52224 1.86 10.8889 2.24667 12.0489 3.02C13.2089 3.78 14.0089 4.85333 14.4489 6.24H11.2289ZM16.1405 10.42C16.1405 9.3 16.3605 8.30667 16.8005 7.44C17.2538 6.57333 17.8605 5.90667 18.6205 5.44C19.3938 4.97333 20.2538 4.74 21.2005 4.74C22.0271 4.74 22.7471 4.90667 23.3605 5.24C23.9871 5.57333 24.4871 5.99333 24.8605 6.5V4.92H27.6805V16H24.8605V14.38C24.5005 14.9 24.0005 15.3333 23.3605 15.68C22.7338 16.0133 22.0071 16.18 21.1805 16.18C20.2471 16.18 19.3938 15.94 18.6205 15.46C17.8605 14.98 17.2538 14.3067 16.8005 13.44C16.3605 12.56 16.1405 11.5533 16.1405 10.42ZM24.8605 10.46C24.8605 9.78 24.7271 9.2 24.4605 8.72C24.1938 8.22667 23.8338 7.85333 23.3805 7.6C22.9271 7.33333 22.4405 7.2 21.9205 7.2C21.4005 7.2 20.9205 7.32667 20.4805 7.58C20.0405 7.83333 19.6805 8.20667 19.4005 8.7C19.1338 9.18 19.0005 9.75333 19.0005 10.42C19.0005 11.0867 19.1338 11.6733 19.4005 12.18C19.6805 12.6733 20.0405 13.0533 20.4805 13.32C20.9338 13.5867 21.4138 13.72 21.9205 13.72C22.4405 13.72 22.9271 13.5933 23.3805 13.34C23.8338 13.0733 24.1938 12.7 24.4605 12.22C24.7271 11.7267 24.8605 11.14 24.8605 10.46ZM44.1752 4.76C45.5352 4.76 46.6285 5.18 47.4552 6.02C48.2952 6.84667 48.7152 8.00667 48.7152 9.5V16H45.9152V9.88C45.9152 9.01333 45.6952 8.35333 45.2552 7.9C44.8152 7.43333 44.2152 7.2 43.4552 7.2C42.6952 7.2 42.0885 7.43333 41.6352 7.9C41.1952 8.35333 40.9752 9.01333 40.9752 9.88V16H38.1752V9.88C38.1752 9.01333 37.9552 8.35333 37.5152 7.9C37.0752 7.43333 36.4752 7.2 35.7152 7.2C34.9418 7.2 34.3285 7.43333 33.8752 7.9C33.4352 8.35333 33.2152 9.01333 33.2152 9.88V16H30.4152V4.92H33.2152V6.26C33.5752 5.79333 34.0352 5.42667 34.5952 5.16C35.1685 4.89333 35.7952 4.76 36.4752 4.76C37.3418 4.76 38.1152 4.94667 38.7952 5.32C39.4752 5.68 40.0018 6.2 40.3752 6.88C40.7352 6.24 41.2552 5.72667 41.9352 5.34C42.6285 4.95333 43.3752 4.76 44.1752 4.76ZM52.7922 3.6C52.2989 3.6 51.8855 3.44667 51.5522 3.14C51.2322 2.82 51.0722 2.42667 51.0722 1.96C51.0722 1.49333 51.2322 1.10667 51.5522 0.799999C51.8855 0.479999 52.2989 0.319999 52.7922 0.319999C53.2855 0.319999 53.6922 0.479999 54.0122 0.799999C54.3455 1.10667 54.5122 1.49333 54.5122 1.96C54.5122 2.42667 54.3455 2.82 54.0122 3.14C53.6922 3.44667 53.2855 3.6 52.7922 3.6ZM54.1722 4.92V16H51.3722V4.92H54.1722ZM63.0786 4.76C64.3986 4.76 65.4653 5.18 66.2786 6.02C67.0919 6.84667 67.4986 8.00667 67.4986 9.5V16H64.6986V9.88C64.6986 9 64.4786 8.32667 64.0386 7.86C63.5986 7.38 62.9986 7.14 62.2386 7.14C61.4653 7.14 60.8519 7.38 60.3986 7.86C59.9586 8.32667 59.7386 9 59.7386 9.88V16H56.9386V4.92H59.7386V6.3C60.1119 5.82 60.5853 5.44667 61.1586 5.18C61.7453 4.9 62.3853 4.76 63.0786 4.76ZM74.5013 4.74C75.3279 4.74 76.0546 4.90667 76.6813 5.24C77.3079 5.56 77.8013 5.98 78.1613 6.5V4.92H80.9813V16.08C80.9813 17.1067 80.7746 18.02 80.3613 18.82C79.9479 19.6333 79.3279 20.2733 78.5013 20.74C77.6746 21.22 76.6746 21.46 75.5013 21.46C73.9279 21.46 72.6346 21.0933 71.6213 20.36C70.6213 19.6267 70.0546 18.6267 69.9213 17.36H72.7013C72.8479 17.8667 73.1613 18.2667 73.6413 18.56C74.1346 18.8667 74.7279 19.02 75.4213 19.02C76.2346 19.02 76.8946 18.7733 77.4013 18.28C77.9079 17.8 78.1613 17.0667 78.1613 16.08V14.36C77.8013 14.88 77.3013 15.3133 76.6613 15.66C76.0346 16.0067 75.3146 16.18 74.5013 16.18C73.5679 16.18 72.7146 15.94 71.9413 15.46C71.1679 14.98 70.5546 14.3067 70.1012 13.44C69.6612 12.56 69.4412 11.5533 69.4412 10.42C69.4412 9.3 69.6612 8.30667 70.1012 7.44C70.5546 6.57333 71.1613 5.90667 71.9213 5.44C72.6946 4.97333 73.5546 4.74 74.5013 4.74ZM78.1613 10.46C78.1613 9.78 78.0279 9.2 77.7613 8.72C77.4946 8.22667 77.1346 7.85333 76.6813 7.6C76.2279 7.33333 75.7413 7.2 75.2213 7.2C74.7013 7.2 74.2213 7.32667 73.7812 7.58C73.3413 7.83333 72.9813 8.20667 72.7013 8.7C72.4346 9.18 72.3013 9.75333 72.3013 10.42C72.3013 11.0867 72.4346 11.6733 72.7013 12.18C72.9813 12.6733 73.3413 13.0533 73.7812 13.32C74.2346 13.5867 74.7146 13.72 75.2213 13.72C75.7413 13.72 76.2279 13.5933 76.6813 13.34C77.1346 13.0733 77.4946 12.7 77.7613 12.22C78.0279 11.7267 78.1613 11.14 78.1613 10.46ZM93.3016 16.14C92.3282 16.14 91.4482 15.9733 90.6616 15.64C89.8882 15.3067 89.2749 14.8267 88.8216 14.2C88.3682 13.5733 88.1349 12.8333 88.1216 11.98H91.1216C91.1616 12.5533 91.3616 13.0067 91.7216 13.34C92.0949 13.6733 92.6016 13.84 93.2416 13.84C93.8949 13.84 94.4082 13.6867 94.7816 13.38C95.1549 13.06 95.3416 12.6467 95.3416 12.14C95.3416 11.7267 95.2149 11.3867 94.9616 11.12C94.7082 10.8533 94.3882 10.6467 94.0016 10.5C93.6282 10.34 93.1082 10.1667 92.4416 9.98C91.5349 9.71333 90.7949 9.45333 90.2216 9.2C89.6616 8.93333 89.1749 8.54 88.7616 8.02C88.3616 7.48667 88.1616 6.78 88.1616 5.9C88.1616 5.07333 88.3682 4.35333 88.7816 3.74C89.1949 3.12667 89.7749 2.66 90.5216 2.34C91.2682 2.00667 92.1216 1.84 93.0816 1.84C94.5216 1.84 95.6882 2.19333 96.5816 2.9C97.4882 3.59333 97.9882 4.56667 98.0816 5.82H95.0016C94.9749 5.34 94.7682 4.94667 94.3816 4.64C94.0082 4.32 93.5082 4.16 92.8816 4.16C92.3349 4.16 91.8949 4.3 91.5616 4.58C91.2416 4.86 91.0816 5.26667 91.0816 5.8C91.0816 6.17333 91.2016 6.48667 91.4416 6.74C91.6949 6.98 92.0016 7.18 92.3616 7.34C92.7349 7.48667 93.2549 7.66 93.9216 7.86C94.8282 8.12667 95.5682 8.39333 96.1416 8.66C96.7149 8.92667 97.2082 9.32667 97.6216 9.86C98.0349 10.3933 98.2416 11.0933 98.2416 11.96C98.2416 12.7067 98.0482 13.4 97.6616 14.04C97.2749 14.68 96.7082 15.1933 95.9616 15.58C95.2149 15.9533 94.3282 16.14 93.3016 16.14ZM110.969 10.22C110.969 10.62 110.942 10.98 110.889 11.3H102.789C102.856 12.1 103.136 12.7267 103.629 13.18C104.122 13.6333 104.729 13.86 105.449 13.86C106.489 13.86 107.229 13.4133 107.669 12.52H110.689C110.369 13.5867 109.756 14.4667 108.849 15.16C107.942 15.84 106.829 16.18 105.509 16.18C104.442 16.18 103.482 15.9467 102.629 15.48C101.789 15 101.129 14.3267 100.649 13.46C100.182 12.5933 99.9491 11.5933 99.9491 10.46C99.9491 9.31333 100.182 8.30667 100.649 7.44C101.116 6.57333 101.769 5.90667 102.609 5.44C103.449 4.97333 104.416 4.74 105.509 4.74C106.562 4.74 107.502 4.96667 108.329 5.42C109.169 5.87333 109.816 6.52 110.269 7.36C110.736 8.18667 110.969 9.14 110.969 10.22ZM108.069 9.42C108.056 8.7 107.796 8.12667 107.289 7.7C106.782 7.26 106.162 7.04 105.429 7.04C104.736 7.04 104.149 7.25333 103.669 7.68C103.202 8.09333 102.916 8.67333 102.809 9.42H108.069ZM117.253 16.18C116.346 16.18 115.533 16.02 114.813 15.7C114.093 15.3667 113.519 14.92 113.093 14.36C112.679 13.8 112.453 13.18 112.413 12.5H115.233C115.286 12.9267 115.493 13.28 115.853 13.56C116.226 13.84 116.686 13.98 117.233 13.98C117.766 13.98 118.179 13.8733 118.473 13.66C118.779 13.4467 118.933 13.1733 118.933 12.84C118.933 12.48 118.746 12.2133 118.373 12.04C118.013 11.8533 117.433 11.6533 116.633 11.44C115.806 11.24 115.126 11.0333 114.593 10.82C114.073 10.6067 113.619 10.28 113.233 9.84C112.859 9.4 112.673 8.80667 112.673 8.06C112.673 7.44667 112.846 6.88667 113.193 6.38C113.553 5.87333 114.059 5.47333 114.713 5.18C115.379 4.88667 116.159 4.74 117.053 4.74C118.373 4.74 119.426 5.07333 120.213 5.74C120.999 6.39333 121.433 7.28 121.513 8.4H118.833C118.793 7.96 118.606 7.61333 118.273 7.36C117.953 7.09333 117.519 6.96 116.973 6.96C116.466 6.96 116.073 7.05333 115.793 7.24C115.526 7.42667 115.393 7.68667 115.393 8.02C115.393 8.39333 115.579 8.68 115.953 8.88C116.326 9.06667 116.906 9.26 117.693 9.46C118.493 9.66 119.153 9.86667 119.673 10.08C120.193 10.2933 120.639 10.6267 121.013 11.08C121.399 11.52 121.599 12.1067 121.613 12.84C121.613 13.48 121.433 14.0533 121.073 14.56C120.726 15.0667 120.219 15.4667 119.553 15.76C118.899 16.04 118.133 16.18 117.253 16.18ZM128.151 16.18C127.245 16.18 126.431 16.02 125.711 15.7C124.991 15.3667 124.418 14.92 123.991 14.36C123.578 13.8 123.351 13.18 123.311 12.5H126.131C126.185 12.9267 126.391 13.28 126.751 13.56C127.125 13.84 127.585 13.98 128.131 13.98C128.665 13.98 129.078 13.8733 129.371 13.66C129.678 13.4467 129.831 13.1733 129.831 12.84C129.831 12.48 129.645 12.2133 129.271 12.04C128.911 11.8533 128.331 11.6533 127.531 11.44C126.705 11.24 126.025 11.0333 125.491 10.82C124.971 10.6067 124.518 10.28 124.131 9.84C123.758 9.4 123.571 8.80667 123.571 8.06C123.571 7.44667 123.745 6.88667 124.091 6.38C124.451 5.87333 124.958 5.47333 125.611 5.18C126.278 4.88667 127.058 4.74 127.951 4.74C129.271 4.74 130.325 5.07333 131.111 5.74C131.898 6.39333 132.331 7.28 132.411 8.4H129.731C129.691 7.96 129.505 7.61333 129.171 7.36C128.851 7.09333 128.418 6.96 127.871 6.96C127.365 6.96 126.971 7.05333 126.691 7.24C126.425 7.42667 126.291 7.68667 126.291 8.02C126.291 8.39333 126.478 8.68 126.851 8.88C127.225 9.06667 127.805 9.26 128.591 9.46C129.391 9.66 130.051 9.86667 130.571 10.08C131.091 10.2933 131.538 10.6267 131.911 11.08C132.298 11.52 132.498 12.1067 132.511 12.84C132.511 13.48 132.331 14.0533 131.971 14.56C131.625 15.0667 131.118 15.4667 130.451 15.76C129.798 16.04 129.031 16.18 128.151 16.18ZM136.23 3.6C135.736 3.6 135.323 3.44667 134.99 3.14C134.67 2.82 134.51 2.42667 134.51 1.96C134.51 1.49333 134.67 1.10667 134.99 0.799999C135.323 0.479999 135.736 0.319999 136.23 0.319999C136.723 0.319999 137.13 0.479999 137.45 0.799999C137.783 1.10667 137.95 1.49333 137.95 1.96C137.95 2.42667 137.783 2.82 137.45 3.14C137.13 3.44667 136.723 3.6 136.23 3.6ZM137.61 4.92V16H134.81V4.92H137.61ZM145.296 16.18C144.229 16.18 143.269 15.9467 142.416 15.48C141.563 15 140.889 14.3267 140.396 13.46C139.916 12.5933 139.676 11.5933 139.676 10.46C139.676 9.32667 139.923 8.32667 140.416 7.46C140.923 6.59333 141.609 5.92667 142.476 5.46C143.343 4.98 144.309 4.74 145.376 4.74C146.443 4.74 147.409 4.98 148.276 5.46C149.143 5.92667 149.823 6.59333 150.316 7.46C150.823 8.32667 151.076 9.32667 151.076 10.46C151.076 11.5933 150.816 12.5933 150.296 13.46C149.789 14.3267 149.096 15 148.216 15.48C147.349 15.9467 146.376 16.18 145.296 16.18ZM145.296 13.74C145.803 13.74 146.276 13.62 146.716 13.38C147.169 13.1267 147.529 12.7533 147.796 12.26C148.063 11.7667 148.196 11.1667 148.196 10.46C148.196 9.40667 147.916 8.6 147.356 8.04C146.809 7.46667 146.136 7.18 145.336 7.18C144.536 7.18 143.863 7.46667 143.316 8.04C142.783 8.6 142.516 9.40667 142.516 10.46C142.516 11.5133 142.776 12.3267 143.296 12.9C143.829 13.46 144.496 13.74 145.296 13.74ZM159.27 4.76C160.59 4.76 161.657 5.18 162.47 6.02C163.283 6.84667 163.69 8.00667 163.69 9.5V16H160.89V9.88C160.89 9 160.67 8.32667 160.23 7.86C159.79 7.38 159.19 7.14 158.43 7.14C157.657 7.14 157.043 7.38 156.59 7.86C156.15 8.32667 155.93 9 155.93 9.88V16H153.13V4.92H155.93V6.3C156.303 5.82 156.777 5.44667 157.35 5.18C157.937 4.9 158.577 4.76 159.27 4.76ZM170.593 16.18C169.686 16.18 168.873 16.02 168.153 15.7C167.433 15.3667 166.859 14.92 166.433 14.36C166.019 13.8 165.793 13.18 165.753 12.5H168.573C168.626 12.9267 168.833 13.28 169.193 13.56C169.566 13.84 170.026 13.98 170.573 13.98C171.106 13.98 171.519 13.8733 171.813 13.66C172.119 13.4467 172.273 13.1733 172.273 12.84C172.273 12.48 172.086 12.2133 171.713 12.04C171.353 11.8533 170.773 11.6533 169.973 11.44C169.146 11.24 168.466 11.0333 167.933 10.82C167.413 10.6067 166.959 10.28 166.573 9.84C166.199 9.4 166.013 8.80667 166.013 8.06C166.013 7.44667 166.186 6.88667 166.533 6.38C166.893 5.87333 167.399 5.47333 168.053 5.18C168.719 4.88667 169.499 4.74 170.393 4.74C171.713 4.74 172.766 5.07333 173.553 5.74C174.339 6.39333 174.773 7.28 174.853 8.4H172.173C172.133 7.96 171.946 7.61333 171.613 7.36C171.293 7.09333 170.859 6.96 170.313 6.96C169.806 6.96 169.413 7.05333 169.133 7.24C168.866 7.42667 168.733 7.68667 168.733 8.02C168.733 8.39333 168.919 8.68 169.293 8.88C169.666 9.06667 170.246 9.26 171.033 9.46C171.833 9.66 172.493 9.86667 173.013 10.08C173.533 10.2933 173.979 10.6267 174.353 11.08C174.739 11.52 174.939 12.1067 174.953 12.84C174.953 13.48 174.773 14.0533 174.413 14.56C174.066 15.0667 173.559 15.4667 172.893 15.76C172.239 16.04 171.473 16.18 170.593 16.18Z" fill="white"/>
</svg>
