<svg width="170" height="22" viewBox="0 0 170 22" fill="none" xmlns="http://www.w3.org/2000/svg">
<path d="M0.838672 9C0.838672 7.62667 1.14534 6.4 1.75867 5.32C2.38534 4.22667 3.23201 3.38 4.29867 2.78C5.37867 2.16667 6.58534 1.86 7.91867 1.86C9.47867 1.86 10.8453 2.26 12.0187 3.06C13.192 3.86 14.012 4.96667 14.4787 6.38H11.2587C10.9387 5.71333 10.4853 5.21333 9.89867 4.88C9.32534 4.54667 8.65867 4.38 7.89867 4.38C7.08534 4.38 6.35867 4.57333 5.71867 4.96C5.09201 5.33333 4.59867 5.86667 4.23867 6.56C3.89201 7.25333 3.71867 8.06667 3.71867 9C3.71867 9.92 3.89201 10.7333 4.23867 11.44C4.59867 12.1333 5.09201 12.6733 5.71867 13.06C6.35867 13.4333 7.08534 13.62 7.89867 13.62C8.65867 13.62 9.32534 13.4533 9.89867 13.12C10.4853 12.7733 10.9387 12.2667 11.2587 11.6H14.4787C14.012 13.0267 13.192 14.14 12.0187 14.94C10.8587 15.7267 9.49201 16.12 7.91867 16.12C6.58534 16.12 5.37867 15.82 4.29867 15.22C3.23201 14.6067 2.38534 13.76 1.75867 12.68C1.14534 11.6 0.838672 10.3733 0.838672 9ZM16.1502 10.42C16.1502 9.3 16.3702 8.30667 16.8102 7.44C17.2636 6.57333 17.8702 5.90667 18.6302 5.44C19.4036 4.97333 20.2636 4.74 21.2102 4.74C22.0369 4.74 22.7569 4.90667 23.3702 5.24C23.9969 5.57333 24.4969 5.99333 24.8702 6.5V4.92H27.6902V16H24.8702V14.38C24.5102 14.9 24.0102 15.3333 23.3702 15.68C22.7436 16.0133 22.0169 16.18 21.1902 16.18C20.2569 16.18 19.4036 15.94 18.6302 15.46C17.8702 14.98 17.2636 14.3067 16.8102 13.44C16.3702 12.56 16.1502 11.5533 16.1502 10.42ZM24.8702 10.46C24.8702 9.78 24.7369 9.2 24.4702 8.72C24.2036 8.22667 23.8436 7.85333 23.3902 7.6C22.9369 7.33333 22.4502 7.2 21.9302 7.2C21.4102 7.2 20.9302 7.32667 20.4902 7.58C20.0502 7.83333 19.6902 8.20667 19.4102 8.7C19.1436 9.18 19.0102 9.75333 19.0102 10.42C19.0102 11.0867 19.1436 11.6733 19.4102 12.18C19.6902 12.6733 20.0502 13.0533 20.4902 13.32C20.9436 13.5867 21.4236 13.72 21.9302 13.72C22.4502 13.72 22.9369 13.5933 23.3902 13.34C23.8436 13.0733 24.2036 12.7 24.4702 12.22C24.7369 11.7267 24.8702 11.14 24.8702 10.46ZM34.6649 16.18C33.7583 16.18 32.9449 16.02 32.2249 15.7C31.5049 15.3667 30.9316 14.92 30.5049 14.36C30.0916 13.8 29.8649 13.18 29.8249 12.5H32.6449C32.6983 12.9267 32.9049 13.28 33.2649 13.56C33.6383 13.84 34.0983 13.98 34.6449 13.98C35.1783 13.98 35.5916 13.8733 35.8849 13.66C36.1916 13.4467 36.3449 13.1733 36.3449 12.84C36.3449 12.48 36.1583 12.2133 35.7849 12.04C35.4249 11.8533 34.8449 11.6533 34.0449 11.44C33.2183 11.24 32.5383 11.0333 32.0049 10.82C31.4849 10.6067 31.0316 10.28 30.6449 9.84C30.2716 9.4 30.0849 8.80667 30.0849 8.06C30.0849 7.44667 30.2583 6.88667 30.6049 6.38C30.9649 5.87333 31.4716 5.47333 32.1249 5.18C32.7916 4.88667 33.5716 4.74 34.4649 4.74C35.7849 4.74 36.8383 5.07333 37.6249 5.74C38.4116 6.39333 38.8449 7.28 38.9249 8.4H36.2449C36.2049 7.96 36.0183 7.61333 35.6849 7.36C35.3649 7.09333 34.9316 6.96 34.3849 6.96C33.8783 6.96 33.4849 7.05333 33.2049 7.24C32.9383 7.42667 32.8049 7.68667 32.8049 8.02C32.8049 8.39333 32.9916 8.68 33.3649 8.88C33.7383 9.06667 34.3183 9.26 35.1049 9.46C35.9049 9.66 36.5649 9.86667 37.0849 10.08C37.6049 10.2933 38.0516 10.6267 38.4249 11.08C38.8116 11.52 39.0116 12.1067 39.0249 12.84C39.0249 13.48 38.8449 14.0533 38.4849 14.56C38.1383 15.0667 37.6316 15.4667 36.9649 15.76C36.3116 16.04 35.5449 16.18 34.6649 16.18ZM51.7834 4.92V16H48.9634V14.6C48.6034 15.08 48.13 15.46 47.5434 15.74C46.97 16.0067 46.3434 16.14 45.6634 16.14C44.7967 16.14 44.03 15.96 43.3634 15.6C42.6967 15.2267 42.17 14.6867 41.7834 13.98C41.41 13.26 41.2234 12.4067 41.2234 11.42V4.92H44.0234V11.02C44.0234 11.9 44.2434 12.58 44.6834 13.06C45.1234 13.5267 45.7234 13.76 46.4834 13.76C47.2567 13.76 47.8634 13.5267 48.3034 13.06C48.7434 12.58 48.9634 11.9 48.9634 11.02V4.92H51.7834ZM53.826 10.42C53.826 9.3 54.046 8.30667 54.486 7.44C54.9393 6.57333 55.546 5.90667 56.306 5.44C57.0793 4.97333 57.9393 4.74 58.886 4.74C59.7127 4.74 60.4327 4.90667 61.046 5.24C61.6727 5.57333 62.1727 5.99333 62.546 6.5V4.92H65.366V16H62.546V14.38C62.186 14.9 61.686 15.3333 61.046 15.68C60.4193 16.0133 59.6927 16.18 58.866 16.18C57.9327 16.18 57.0793 15.94 56.306 15.46C55.546 14.98 54.9393 14.3067 54.486 13.44C54.046 12.56 53.826 11.5533 53.826 10.42ZM62.546 10.46C62.546 9.78 62.4127 9.2 62.146 8.72C61.8793 8.22667 61.5193 7.85333 61.066 7.6C60.6127 7.33333 60.126 7.2 59.606 7.2C59.086 7.2 58.606 7.32667 58.166 7.58C57.726 7.83333 57.366 8.20667 57.086 8.7C56.8193 9.18 56.686 9.75333 56.686 10.42C56.686 11.0867 56.8193 11.6733 57.086 12.18C57.366 12.6733 57.726 13.0533 58.166 13.32C58.6193 13.5867 59.0993 13.72 59.606 13.72C60.126 13.72 60.6127 13.5933 61.066 13.34C61.5193 13.0733 61.8793 12.7 62.146 12.22C62.4127 11.7267 62.546 11.14 62.546 10.46ZM70.9007 1.2V16H68.1007V1.2H70.9007ZM86.3527 8.84C87.1394 8.98667 87.7861 9.38 88.2927 10.02C88.7994 10.66 89.0527 11.3933 89.0527 12.22C89.0527 12.9667 88.8661 13.6267 88.4927 14.2C88.1327 14.76 87.6061 15.2 86.9127 15.52C86.2194 15.84 85.3994 16 84.4527 16H78.4327V2.04H84.1927C85.1394 2.04 85.9527 2.19333 86.6327 2.5C87.3261 2.80667 87.8461 3.23333 88.1927 3.78C88.5527 4.32667 88.7327 4.94667 88.7327 5.64C88.7327 6.45333 88.5127 7.13333 88.0727 7.68C87.6461 8.22667 87.0727 8.61333 86.3527 8.84ZM81.2327 7.8H83.7927C84.4594 7.8 84.9727 7.65333 85.3327 7.36C85.6927 7.05333 85.8727 6.62 85.8727 6.06C85.8727 5.5 85.6927 5.06667 85.3327 4.76C84.9727 4.45333 84.4594 4.3 83.7927 4.3H81.2327V7.8ZM84.0527 13.72C84.7327 13.72 85.2594 13.56 85.6327 13.24C86.0194 12.92 86.2127 12.4667 86.2127 11.88C86.2127 11.28 86.0127 10.8133 85.6127 10.48C85.2127 10.1333 84.6727 9.96 83.9927 9.96H81.2327V13.72H84.0527ZM94.0843 6.64C94.4443 6.05333 94.911 5.59333 95.4843 5.26C96.071 4.92667 96.7376 4.76 97.4843 4.76V7.7H96.7443C95.8643 7.7 95.1976 7.90667 94.7443 8.32C94.3043 8.73333 94.0843 9.45333 94.0843 10.48V16H91.2843V4.92H94.0843V6.64ZM104.29 16.18C103.224 16.18 102.264 15.9467 101.41 15.48C100.557 15 99.8836 14.3267 99.3902 13.46C98.9102 12.5933 98.6702 11.5933 98.6702 10.46C98.6702 9.32667 98.9169 8.32667 99.4102 7.46C99.9169 6.59333 100.604 5.92667 101.47 5.46C102.337 4.98 103.304 4.74 104.37 4.74C105.437 4.74 106.404 4.98 107.27 5.46C108.137 5.92667 108.817 6.59333 109.31 7.46C109.817 8.32667 110.07 9.32667 110.07 10.46C110.07 11.5933 109.81 12.5933 109.29 13.46C108.784 14.3267 108.09 15 107.21 15.48C106.344 15.9467 105.37 16.18 104.29 16.18ZM104.29 13.74C104.797 13.74 105.27 13.62 105.71 13.38C106.164 13.1267 106.524 12.7533 106.79 12.26C107.057 11.7667 107.19 11.1667 107.19 10.46C107.19 9.40667 106.91 8.6 106.35 8.04C105.804 7.46667 105.13 7.18 104.33 7.18C103.53 7.18 102.857 7.46667 102.31 8.04C101.777 8.6 101.51 9.40667 101.51 10.46C101.51 11.5133 101.77 12.3267 102.29 12.9C102.824 13.46 103.49 13.74 104.29 13.74ZM127.484 4.92L124.244 16H121.224L119.204 8.26L117.184 16H114.144L110.884 4.92H113.724L115.684 13.36L117.804 4.92H120.764L122.844 13.34L124.804 4.92H127.484ZM133.239 16.18C132.332 16.18 131.519 16.02 130.799 15.7C130.079 15.3667 129.506 14.92 129.079 14.36C128.666 13.8 128.439 13.18 128.399 12.5H131.219C131.272 12.9267 131.479 13.28 131.839 13.56C132.212 13.84 132.672 13.98 133.219 13.98C133.752 13.98 134.166 13.8733 134.459 13.66C134.766 13.4467 134.919 13.1733 134.919 12.84C134.919 12.48 134.732 12.2133 134.359 12.04C133.999 11.8533 133.419 11.6533 132.619 11.44C131.792 11.24 131.112 11.0333 130.579 10.82C130.059 10.6067 129.606 10.28 129.219 9.84C128.846 9.4 128.659 8.80667 128.659 8.06C128.659 7.44667 128.832 6.88667 129.179 6.38C129.539 5.87333 130.046 5.47333 130.699 5.18C131.366 4.88667 132.146 4.74 133.039 4.74C134.359 4.74 135.412 5.07333 136.199 5.74C136.986 6.39333 137.419 7.28 137.499 8.4H134.819C134.779 7.96 134.592 7.61333 134.259 7.36C133.939 7.09333 133.506 6.96 132.959 6.96C132.452 6.96 132.059 7.05333 131.779 7.24C131.512 7.42667 131.379 7.68667 131.379 8.02C131.379 8.39333 131.566 8.68 131.939 8.88C132.312 9.06667 132.892 9.26 133.679 9.46C134.479 9.66 135.139 9.86667 135.659 10.08C136.179 10.2933 136.626 10.6267 136.999 11.08C137.386 11.52 137.586 12.1067 137.599 12.84C137.599 13.48 137.419 14.0533 137.059 14.56C136.712 15.0667 136.206 15.4667 135.539 15.76C134.886 16.04 134.119 16.18 133.239 16.18ZM141.318 3.6C140.824 3.6 140.411 3.44667 140.078 3.14C139.758 2.82 139.598 2.42667 139.598 1.96C139.598 1.49333 139.758 1.10667 140.078 0.799999C140.411 0.479999 140.824 0.319999 141.318 0.319999C141.811 0.319999 142.218 0.479999 142.538 0.799999C142.871 1.10667 143.038 1.49333 143.038 1.96C143.038 2.42667 142.871 2.82 142.538 3.14C142.218 3.44667 141.811 3.6 141.318 3.6ZM142.698 4.92V16H139.898V4.92H142.698ZM151.604 4.76C152.924 4.76 153.991 5.18 154.804 6.02C155.617 6.84667 156.024 8.00667 156.024 9.5V16H153.224V9.88C153.224 9 153.004 8.32667 152.564 7.86C152.124 7.38 151.524 7.14 150.764 7.14C149.991 7.14 149.377 7.38 148.924 7.86C148.484 8.32667 148.264 9 148.264 9.88V16H145.464V4.92H148.264V6.3C148.637 5.82 149.111 5.44667 149.684 5.18C150.271 4.9 150.911 4.76 151.604 4.76ZM163.027 4.74C163.853 4.74 164.58 4.90667 165.207 5.24C165.833 5.56 166.327 5.98 166.687 6.5V4.92H169.507V16.08C169.507 17.1067 169.3 18.02 168.887 18.82C168.473 19.6333 167.853 20.2733 167.027 20.74C166.2 21.22 165.2 21.46 164.027 21.46C162.453 21.46 161.16 21.0933 160.147 20.36C159.147 19.6267 158.58 18.6267 158.447 17.36H161.227C161.373 17.8667 161.687 18.2667 162.167 18.56C162.66 18.8667 163.253 19.02 163.947 19.02C164.76 19.02 165.42 18.7733 165.927 18.28C166.433 17.8 166.687 17.0667 166.687 16.08V14.36C166.327 14.88 165.827 15.3133 165.187 15.66C164.56 16.0067 163.84 16.18 163.027 16.18C162.093 16.18 161.24 15.94 160.467 15.46C159.693 14.98 159.08 14.3067 158.627 13.44C158.187 12.56 157.967 11.5533 157.967 10.42C157.967 9.3 158.187 8.30667 158.627 7.44C159.08 6.57333 159.687 5.90667 160.447 5.44C161.22 4.97333 162.08 4.74 163.027 4.74ZM166.687 10.46C166.687 9.78 166.553 9.2 166.287 8.72C166.02 8.22667 165.66 7.85333 165.207 7.6C164.753 7.33333 164.267 7.2 163.747 7.2C163.227 7.2 162.747 7.32667 162.307 7.58C161.867 7.83333 161.507 8.20667 161.227 8.7C160.96 9.18 160.827 9.75333 160.827 10.42C160.827 11.0867 160.96 11.6733 161.227 12.18C161.507 12.6733 161.867 13.0533 162.307 13.32C162.76 13.5867 163.24 13.72 163.747 13.72C164.267 13.72 164.753 13.5933 165.207 13.34C165.66 13.0733 166.02 12.7 166.287 12.22C166.553 11.7267 166.687 11.14 166.687 10.46Z" fill="white"/>
</svg>
