<svg width="234" height="17" viewBox="0 0 234 17" fill="none" xmlns="http://www.w3.org/2000/svg">
<path d="M15.8344 2.04V16H13.0344V6.92L9.29438 16H7.17438L3.41438 6.92V16H0.614375V2.04H3.79438L8.23438 12.42L12.6744 2.04H15.8344ZM28.9027 10.22C28.9027 10.62 28.876 10.98 28.8227 11.3H20.7227C20.7893 12.1 21.0693 12.7267 21.5627 13.18C22.056 13.6333 22.6627 13.86 23.3827 13.86C24.4227 13.86 25.1627 13.4133 25.6027 12.52H28.6227C28.3027 13.5867 27.6893 14.4667 26.7827 15.16C25.876 15.84 24.7627 16.18 23.4427 16.18C22.376 16.18 21.416 15.9467 20.5627 15.48C19.7227 15 19.0627 14.3267 18.5827 13.46C18.116 12.5933 17.8827 11.5933 17.8827 10.46C17.8827 9.31333 18.116 8.30667 18.5827 7.44C19.0493 6.57333 19.7027 5.90667 20.5427 5.44C21.3827 4.97333 22.3493 4.74 23.4427 4.74C24.496 4.74 25.436 4.96667 26.2627 5.42C27.1027 5.87333 27.7493 6.52 28.2027 7.36C28.6693 8.18667 28.9027 9.14 28.9027 10.22ZM26.0027 9.42C25.9893 8.7 25.7293 8.12667 25.2227 7.7C24.716 7.26 24.096 7.04 23.3627 7.04C22.6693 7.04 22.0827 7.25333 21.6027 7.68C21.136 8.09333 20.8493 8.67333 20.7427 9.42H26.0027ZM30.2264 10.42C30.2264 9.3 30.4464 8.30667 30.8864 7.44C31.3397 6.57333 31.9531 5.90667 32.7264 5.44C33.4997 4.97333 34.3597 4.74 35.3064 4.74C36.0264 4.74 36.7131 4.9 37.3664 5.22C38.0197 5.52667 38.5397 5.94 38.9264 6.46V1.2H41.7664V16H38.9264V14.36C38.5797 14.9067 38.0931 15.3467 37.4664 15.68C36.8397 16.0133 36.1131 16.18 35.2864 16.18C34.3531 16.18 33.4997 15.94 32.7264 15.46C31.9531 14.98 31.3397 14.3067 30.8864 13.44C30.4464 12.56 30.2264 11.5533 30.2264 10.42ZM38.9464 10.46C38.9464 9.78 38.8131 9.2 38.5464 8.72C38.2797 8.22667 37.9197 7.85333 37.4664 7.6C37.0131 7.33333 36.5264 7.2 36.0064 7.2C35.4864 7.2 35.0064 7.32667 34.5664 7.58C34.1264 7.83333 33.7664 8.20667 33.4864 8.7C33.2197 9.18 33.0864 9.75333 33.0864 10.42C33.0864 11.0867 33.2197 11.6733 33.4864 12.18C33.7664 12.6733 34.1264 13.0533 34.5664 13.32C35.0197 13.5867 35.4997 13.72 36.0064 13.72C36.5264 13.72 37.0131 13.5933 37.4664 13.34C37.9197 13.0733 38.2797 12.7 38.5464 12.22C38.8131 11.7267 38.9464 11.14 38.9464 10.46ZM45.9211 3.6C45.4278 3.6 45.0144 3.44667 44.6811 3.14C44.3611 2.82 44.2011 2.42667 44.2011 1.96C44.2011 1.49333 44.3611 1.10667 44.6811 0.799999C45.0144 0.479999 45.4278 0.319999 45.9211 0.319999C46.4144 0.319999 46.8211 0.479999 47.1411 0.799999C47.4744 1.10667 47.6411 1.49333 47.6411 1.96C47.6411 2.42667 47.4744 2.82 47.1411 3.14C46.8211 3.44667 46.4144 3.6 45.9211 3.6ZM47.3011 4.92V16H44.5011V4.92H47.3011ZM49.3475 10.42C49.3475 9.3 49.5675 8.30667 50.0075 7.44C50.4608 6.57333 51.0675 5.90667 51.8275 5.44C52.6008 4.97333 53.4608 4.74 54.4075 4.74C55.2342 4.74 55.9542 4.90667 56.5675 5.24C57.1942 5.57333 57.6942 5.99333 58.0675 6.5V4.92H60.8875V16H58.0675V14.38C57.7075 14.9 57.2075 15.3333 56.5675 15.68C55.9408 16.0133 55.2142 16.18 54.3875 16.18C53.4542 16.18 52.6008 15.94 51.8275 15.46C51.0675 14.98 50.4608 14.3067 50.0075 13.44C49.5675 12.56 49.3475 11.5533 49.3475 10.42ZM58.0675 10.46C58.0675 9.78 57.9342 9.2 57.6675 8.72C57.4008 8.22667 57.0408 7.85333 56.5875 7.6C56.1342 7.33333 55.6475 7.2 55.1275 7.2C54.6075 7.2 54.1275 7.32667 53.6875 7.58C53.2475 7.83333 52.8875 8.20667 52.6075 8.7C52.3408 9.18 52.2075 9.75333 52.2075 10.42C52.2075 11.0867 52.3408 11.6733 52.6075 12.18C52.8875 12.6733 53.2475 13.0533 53.6875 13.32C54.1408 13.5867 54.6208 13.72 55.1275 13.72C55.6475 13.72 56.1342 13.5933 56.5875 13.34C57.0408 13.0733 57.4008 12.7 57.6675 12.22C57.9342 11.7267 58.0675 11.14 58.0675 10.46ZM79.1278 16L77.6078 14.5C76.3145 15.66 74.7345 16.24 72.8678 16.24C71.8411 16.24 70.9345 16.0667 70.1478 15.72C69.3745 15.36 68.7745 14.86 68.3478 14.22C67.9211 13.5667 67.7078 12.8133 67.7078 11.96C67.7078 11.04 67.9678 10.2133 68.4878 9.48C69.0078 8.74667 69.7745 8.15333 70.7878 7.7C70.4278 7.26 70.1678 6.84 70.0078 6.44C69.8478 6.02667 69.7678 5.58667 69.7678 5.12C69.7678 4.48 69.9345 3.90667 70.2678 3.4C70.6011 2.88 71.0745 2.47333 71.6878 2.18C72.3145 1.88667 73.0411 1.74 73.8678 1.74C74.7078 1.74 75.4278 1.9 76.0278 2.22C76.6278 2.54 77.0745 2.96667 77.3678 3.5C77.6611 4.03333 77.7878 4.62667 77.7478 5.28H75.0278C75.0411 4.84 74.9345 4.50667 74.7078 4.28C74.4811 4.04 74.1745 3.92 73.7878 3.92C73.4145 3.92 73.1011 4.03333 72.8478 4.26C72.6078 4.47333 72.4878 4.75333 72.4878 5.1C72.4878 5.43333 72.5878 5.76667 72.7878 6.1C72.9878 6.42 73.3145 6.82 73.7678 7.3L77.2878 10.78C77.3145 10.7533 77.3345 10.7267 77.3478 10.7C77.3611 10.6733 77.3745 10.6467 77.3878 10.62L78.5278 8.72H81.4478L80.0478 11.18C79.7811 11.7 79.4945 12.1933 79.1878 12.66L82.5678 16H79.1278ZM72.9478 13.92C74.0411 13.92 75.0078 13.5333 75.8478 12.76L72.4078 9.36C71.1145 9.93333 70.4678 10.7467 70.4678 11.8C70.4678 12.4 70.6945 12.9067 71.1478 13.32C71.6011 13.72 72.2011 13.92 72.9478 13.92ZM91.5198 4.3V7.8H96.2198V10.02H91.5198V13.72H96.8198V16H88.7198V2.02H96.8198V4.3H91.5198ZM105.504 4.76C106.824 4.76 107.891 5.18 108.704 6.02C109.518 6.84667 109.924 8.00667 109.924 9.5V16H107.124V9.88C107.124 9 106.904 8.32667 106.464 7.86C106.024 7.38 105.424 7.14 104.664 7.14C103.891 7.14 103.278 7.38 102.824 7.86C102.384 8.32667 102.164 9 102.164 9.88V16H99.3644V4.92H102.164V6.3C102.538 5.82 103.011 5.44667 103.584 5.18C104.171 4.9 104.811 4.76 105.504 4.76ZM115.847 7.22V12.58C115.847 12.9533 115.934 13.2267 116.107 13.4C116.294 13.56 116.6 13.64 117.027 13.64H118.327V16H116.567C114.207 16 113.027 14.8533 113.027 12.56V7.22H111.707V4.92H113.027V2.18H115.847V4.92H118.327V7.22H115.847ZM130.641 10.22C130.641 10.62 130.614 10.98 130.561 11.3H122.461C122.528 12.1 122.808 12.7267 123.301 13.18C123.794 13.6333 124.401 13.86 125.121 13.86C126.161 13.86 126.901 13.4133 127.341 12.52H130.361C130.041 13.5867 129.428 14.4667 128.521 15.16C127.614 15.84 126.501 16.18 125.181 16.18C124.114 16.18 123.154 15.9467 122.301 15.48C121.461 15 120.801 14.3267 120.321 13.46C119.854 12.5933 119.621 11.5933 119.621 10.46C119.621 9.31333 119.854 8.30667 120.321 7.44C120.788 6.57333 121.441 5.90667 122.281 5.44C123.121 4.97333 124.088 4.74 125.181 4.74C126.234 4.74 127.174 4.96667 128.001 5.42C128.841 5.87333 129.488 6.52 129.941 7.36C130.408 8.18667 130.641 9.14 130.641 10.22ZM127.741 9.42C127.728 8.7 127.468 8.12667 126.961 7.7C126.454 7.26 125.834 7.04 125.101 7.04C124.408 7.04 123.821 7.25333 123.341 7.68C122.874 8.09333 122.588 8.67333 122.481 9.42H127.741ZM135.485 6.64C135.845 6.05333 136.311 5.59333 136.885 5.26C137.471 4.92667 138.138 4.76 138.885 4.76V7.7H138.145C137.265 7.7 136.598 7.90667 136.145 8.32C135.705 8.73333 135.485 9.45333 135.485 10.48V16H132.685V4.92H135.485V6.64ZM144.031 7.22V12.58C144.031 12.9533 144.117 13.2267 144.291 13.4C144.477 13.56 144.784 13.64 145.211 13.64H146.511V16H144.751C142.391 16 141.211 14.8533 141.211 12.56V7.22H139.891V4.92H141.211V2.18H144.031V4.92H146.511V7.22H144.031ZM147.805 10.42C147.805 9.3 148.025 8.30667 148.465 7.44C148.918 6.57333 149.525 5.90667 150.285 5.44C151.058 4.97333 151.918 4.74 152.865 4.74C153.691 4.74 154.411 4.90667 155.025 5.24C155.651 5.57333 156.151 5.99333 156.525 6.5V4.92H159.345V16H156.525V14.38C156.165 14.9 155.665 15.3333 155.025 15.68C154.398 16.0133 153.671 16.18 152.845 16.18C151.911 16.18 151.058 15.94 150.285 15.46C149.525 14.98 148.918 14.3067 148.465 13.44C148.025 12.56 147.805 11.5533 147.805 10.42ZM156.525 10.46C156.525 9.78 156.391 9.2 156.125 8.72C155.858 8.22667 155.498 7.85333 155.045 7.6C154.591 7.33333 154.105 7.2 153.585 7.2C153.065 7.2 152.585 7.32667 152.145 7.58C151.705 7.83333 151.345 8.20667 151.065 8.7C150.798 9.18 150.665 9.75333 150.665 10.42C150.665 11.0867 150.798 11.6733 151.065 12.18C151.345 12.6733 151.705 13.0533 152.145 13.32C152.598 13.5867 153.078 13.72 153.585 13.72C154.105 13.72 154.591 13.5933 155.045 13.34C155.498 13.0733 155.858 12.7 156.125 12.22C156.391 11.7267 156.525 11.14 156.525 10.46ZM163.499 3.6C163.006 3.6 162.593 3.44667 162.259 3.14C161.939 2.82 161.779 2.42667 161.779 1.96C161.779 1.49333 161.939 1.10667 162.259 0.799999C162.593 0.479999 163.006 0.319999 163.499 0.319999C163.993 0.319999 164.399 0.479999 164.719 0.799999C165.053 1.10667 165.219 1.49333 165.219 1.96C165.219 2.42667 165.053 2.82 164.719 3.14C164.399 3.44667 163.993 3.6 163.499 3.6ZM164.879 4.92V16H162.079V4.92H164.879ZM173.786 4.76C175.106 4.76 176.172 5.18 176.986 6.02C177.799 6.84667 178.206 8.00667 178.206 9.5V16H175.406V9.88C175.406 9 175.186 8.32667 174.746 7.86C174.306 7.38 173.706 7.14 172.946 7.14C172.172 7.14 171.559 7.38 171.106 7.86C170.666 8.32667 170.446 9 170.446 9.88V16H167.646V4.92H170.446V6.3C170.819 5.82 171.292 5.44667 171.866 5.18C172.452 4.9 173.092 4.76 173.786 4.76ZM194.628 4.76C195.988 4.76 197.082 5.18 197.908 6.02C198.748 6.84667 199.168 8.00667 199.168 9.5V16H196.368V9.88C196.368 9.01333 196.148 8.35333 195.708 7.9C195.268 7.43333 194.668 7.2 193.908 7.2C193.148 7.2 192.542 7.43333 192.088 7.9C191.648 8.35333 191.428 9.01333 191.428 9.88V16H188.628V9.88C188.628 9.01333 188.408 8.35333 187.968 7.9C187.528 7.43333 186.928 7.2 186.168 7.2C185.395 7.2 184.782 7.43333 184.328 7.9C183.888 8.35333 183.668 9.01333 183.668 9.88V16H180.868V4.92H183.668V6.26C184.028 5.79333 184.488 5.42667 185.048 5.16C185.622 4.89333 186.248 4.76 186.928 4.76C187.795 4.76 188.568 4.94667 189.248 5.32C189.928 5.68 190.455 6.2 190.828 6.88C191.188 6.24 191.708 5.72667 192.388 5.34C193.082 4.95333 193.828 4.76 194.628 4.76ZM212.125 10.22C212.125 10.62 212.099 10.98 212.045 11.3H203.945C204.012 12.1 204.292 12.7267 204.785 13.18C205.279 13.6333 205.885 13.86 206.605 13.86C207.645 13.86 208.385 13.4133 208.825 12.52H211.845C211.525 13.5867 210.912 14.4667 210.005 15.16C209.099 15.84 207.985 16.18 206.665 16.18C205.599 16.18 204.639 15.9467 203.785 15.48C202.945 15 202.285 14.3267 201.805 13.46C201.339 12.5933 201.105 11.5933 201.105 10.46C201.105 9.31333 201.339 8.30667 201.805 7.44C202.272 6.57333 202.925 5.90667 203.765 5.44C204.605 4.97333 205.572 4.74 206.665 4.74C207.719 4.74 208.659 4.96667 209.485 5.42C210.325 5.87333 210.972 6.52 211.425 7.36C211.892 8.18667 212.125 9.14 212.125 10.22ZM209.225 9.42C209.212 8.7 208.952 8.12667 208.445 7.7C207.939 7.26 207.319 7.04 206.585 7.04C205.892 7.04 205.305 7.25333 204.825 7.68C204.359 8.09333 204.072 8.67333 203.965 9.42H209.225ZM220.309 4.76C221.629 4.76 222.696 5.18 223.509 6.02C224.322 6.84667 224.729 8.00667 224.729 9.5V16H221.929V9.88C221.929 9 221.709 8.32667 221.269 7.86C220.829 7.38 220.229 7.14 219.469 7.14C218.696 7.14 218.082 7.38 217.629 7.86C217.189 8.32667 216.969 9 216.969 9.88V16H214.169V4.92H216.969V6.3C217.342 5.82 217.816 5.44667 218.389 5.18C218.976 4.9 219.616 4.76 220.309 4.76ZM230.652 7.22V12.58C230.652 12.9533 230.738 13.2267 230.912 13.4C231.098 13.56 231.405 13.64 231.832 13.64H233.132V16H231.372C229.012 16 227.832 14.8533 227.832 12.56V7.22H226.512V4.92H227.832V2.18H230.652V4.92H233.132V7.22H230.652Z" fill="white"/>
</svg>
