<svg id="eFhZiDG0kKn1" xmlns="http://www.w3.org/2000/svg" xmlns:xlink="http://www.w3.org/1999/xlink" viewBox="0 0 300 300" shape-rendering="geometricPrecision" text-rendering="geometricPrecision" project-id="de3c2c5b3b6e419b84e4a18d83718d4a" export-id="712b6955301e44cca73b37e1d04535e5" cached="false"><path d="M83.14,50c0,2.79-4.34,5-5,7.53s1.94,6.71.59,9-6.21,2.08-8.13,4-1.64,6.76-4,8.13-6.38-1.3-9-.59-4.75,5-7.53,5-5-4.34-7.53-5-6.71,1.94-9,.59-2.08-6.21-4-8.13-6.76-1.64-8.13-4s1.3-6.38.59-9-5-4.75-5-7.53s4.34-5,5-7.53-1.94-6.71-.59-9s6.21-2.08,8.13-4s1.64-6.76,4-8.13s6.38,1.3,9,.59s4.75-5,7.53-5s5,4.34,7.53,5s6.71-1.94,9-.59s2.08,6.21,4,8.13s6.76,1.64,8.13,4-1.3,6.38-.59,9s5,4.74,5,7.53Z" transform="matrix(3.893022 0 0 3.893022-44.923612-44.6511)" fill="#fff"/></svg>
